<svg xmlns="http://www.w3.org/2000/svg" width="553" height="292" viewBox="0 0 553 292">
  <g id="Group_158" data-name="Group 158" transform="translate(-508 -776)">
    <rect id="Rectangle_33" data-name="Rectangle 33" width="553" height="270" rx="25" transform="translate(508 776)" fill="#fda92d" opacity="0.14"/>
    <g id="Group_91" data-name="Group 91" transform="translate(1.196)">
      <g id="Group_132" data-name="Group 132" transform="translate(12 -5)">
        <text id="Set_Business_account_to_explore_premium_feature" data-name="Set Business account to 
explore premium feature" transform="translate(800 868)" font-size="16" font-family="Poppins-SemiBold, Poppins" font-weight="600"><tspan x="0" y="0">Set </tspan><tspan y="0" fill="#4564d8">Business</tspan><tspan y="0" xml:space="preserve"> Account To </tspan><tspan x="0" y="30">Explore Premium Feature</tspan></text>
        <rect id="Rectangle_61" data-name="Rectangle 61" width="152" height="22" rx="11" transform="translate(813.804 970)" fill="#fda92d" opacity="0.73"/>
        <g id="Group_136" data-name="Group 136" transform="translate(-0.196 10)">
          <rect id="Rectangle_40" data-name="Rectangle 40" width="180" height="57" rx="15" transform="translate(800 914)" fill="#fff"/>
          <text id="upgrade_to_business" data-name="upgrade to business" transform="translate(822 947)" fill="#fda92d" font-size="13" font-family="Poppins-SemiBold, Poppins" font-weight="600"><tspan x="0" y="0">Upgrade To Business</tspan></text>
        </g>
      </g>
      <g id="Group_131" data-name="Group 131" transform="translate(-3.768 -26.03)">
        <path id="Path_174" data-name="Path 174" d="M3299.753,796.808c8.26-2.23,41.561,1.444,70.993-3.822s102.555-8.123,123.381,0,17.471,24.382,4.084,26.3-12.628,23.911-52.461,19.129-65.933-20.085-93.292-14.825S3269.625,804.94,3299.753,796.808Z" transform="translate(-2734.916 183.456)" fill="#f9deb5"/>
        <g id="Group_92" data-name="Group 92" transform="translate(554.571 851.03)">
          <g id="Group_96" data-name="Group 96" transform="translate(46.422 37.82)">
            <g id="Group_93" data-name="Group 93" transform="translate(44.416 58.041)">
              <path id="Path_83" data-name="Path 83" d="M1710.414,1349.322h.085a1.159,1.159,0,0,0,1.172-1.24l-4.657-46.514-4.064.363,6.688,46.764A.757.757,0,0,0,1710.414,1349.322Z" transform="translate(-1702.95 -1301.567)" fill="#94562f"/>
            </g>
            <g id="Group_94" data-name="Group 94" transform="translate(5.772 58.041)">
              <path id="Path_84" data-name="Path 84" d="M2084.3,1349.322h-.085a1.159,1.159,0,0,1-1.171-1.24l4.657-46.514,4.064.363-6.687,46.764A.757.757,0,0,1,2084.3,1349.322Z" transform="translate(-2083.035 -1301.567)" fill="#94562f"/>
            </g>
            <g id="Group_95" data-name="Group 95" transform="translate(77.273 58.041)">
              <path id="Path_85" data-name="Path 85" d="M1387.246,1349.322h.085a1.159,1.159,0,0,0,1.172-1.24l-4.657-46.514-4.064.363,6.688,46.764A.757.757,0,0,0,1387.246,1349.322Z" transform="translate(-1379.782 -1301.567)" fill="#94562f"/>
            </g>
            <path id="Path_86" data-name="Path 86" d="M1747.489,781.986l-8.267-40.826c-1.061-5.528,3.519-10.582,9.466-10.446l15.944.364a12.594,12.594,0,0,1,11.811,9.092l12.1,41.816Z" transform="translate(-1739.068 -730.712)" fill="#94562f"/>
            <path id="Path_87" data-name="Path 87" d="M1698.3,781.986l-8.267-40.826c-1.061-5.528,3.519-10.582,9.467-10.446l15.944.364a12.594,12.594,0,0,1,11.811,9.092l12.1,41.816Z" transform="translate(-1684.874 -730.712)" fill="#c37544"/>
            <path id="Rectangle_41" data-name="Rectangle 41" d="M0,0H63.966a3.723,3.723,0,0,1,3.723,3.723v0a3.723,3.723,0,0,1-3.723,3.723H3.723A3.723,3.723,0,0,1,0,3.723V0A0,0,0,0,1,0,0Z" transform="translate(8.421 51.275)" fill="#c37544"/>
            <path id="Rectangle_42" data-name="Rectangle 42" d="M3.723,0H40.2a3.723,3.723,0,0,1,3.723,3.723v0A3.723,3.723,0,0,1,40.2,7.446H3.723A3.723,3.723,0,0,1,0,3.723v0A3.723,3.723,0,0,1,3.723,0Z" transform="translate(38.471 51.275)" fill="#94562f"/>
          </g>
          <path id="Path_88" data-name="Path 88" d="M1511.716,512.445c.889-.728-18.483-17.081-22.636-7.912,0,0-9.947-7.664-.788-12.15,5.156-2.525,5.9-7.839,7.12-10.965s7.4-11.655,14.539-5.661c0,0,3.622.642,5.573,3.025C1519.959,484.2,1529.821,520.451,1511.716,512.445Z" transform="translate(-1400.433 -461.986)" fill="#163560"/>
          <path id="Path_89" data-name="Path 89" d="M1501.766,695.663a99.182,99.182,0,0,0,9.3,12.18c2.494,2.655,4.154,3.925,7.107,4.957a8.577,8.577,0,0,0,4.346.437c.921-.161.521-5.6-.76-9.74-1.687-5.449-6.947-18.988-6.947-18.988l-3.009,1.283s4.174,17.052,3.677,17.124l-4.414-11.169Z" transform="translate(-1403.007 -651.386)" fill="#ffc49b"/>
          <path id="Path_90" data-name="Path 90" d="M1389.266,1065.606s33.538-.534,38.013,2.313-4.473,48.292-4.473,48.292-8.674.277-9.364-2.019c0,0,1.561-21.3.195-24.974s-.523-8.777-.523-8.777-16.966,2.589-22.354,1.314S1389.266,1065.606,1389.266,1065.606Z" transform="translate(-1296.936 -993.701)" fill="#2d4464"/>
          <path id="Path_91" data-name="Path 91" d="M1467.334,1504.9s-1.909,5.111-1.5,7.007-.249,5.572.527,7.215,2.162,4.033.832,4.638c-.5.23-6.378-4.326-6.714-5.67s-.6-5.31-1.722-7.463a3.2,3.2,0,0,1,1.443-4.681c1.625-.792,3.889-5.127,3.889-5.127Z" transform="translate(-1343.301 -1384.695)" fill="#ec4946"/>
          <path id="Path_92" data-name="Path 92" d="M1291.844,1609.932s1.839,5.137,3.372,6.324,3.4,4.417,5.058,5.172,4.253,1.686,3.628,3.007c-.238.5-7.664.809-8.788,0s-3.883-3.671-6.131-4.59a3.2,3.2,0,0,1-1.918-4.507c.731-1.653-.337-6.427-.337-6.427Z" transform="translate(-1162.114 -1481.801)" fill="#ec4946"/>
          <path id="Path_93" data-name="Path 93" d="M1390.884,1054.213s39.8,6.228,42.866,9.77,15.211,49.672,15.211,49.672-3.544,1.988-6.775.148c0,0-9.246-15.635-13.331-20.54s-5.652-20.079-6.325-20.233-22.09,2.587-29.981-2.635C1387.9,1067.318,1390.884,1054.213,1390.884,1054.213Z" transform="translate(-1317.572 -983.502)" fill="#2d4464"/>
          <path id="Path_94" data-name="Path 94" d="M1591.834,705.389c2.349-1.768,9.417-3.721,13.838-1.731,2.093.942,5.27,2.177,7.171,4.538,2.052,2.549,4.414,11.17,4.414,11.17-.773,4.54-4.383,5.1-4.383,5.1h0c2.114,7.993-7.846,5.9-7.2,10.337,1.123,7.735-6.113,11.8-10.056,13.6-5.161,2.36-19.665,5.333-19.681,0C1575.864,724.105,1585.081,710.473,1591.834,705.389Z" transform="translate(-1504.779 -667.836)" fill="#ec4946"/>
          <path id="Path_95" data-name="Path 95" d="M1657.091,812.849s2.616,14.118,9.7,18.262h6.667l-7.038-8.8Z" transform="translate(-1569.233 -766.678)" fill="#f56060"/>
          <g id="Group_97" data-name="Group 97" transform="translate(108.644 27.065)">
            <path id="Path_96" data-name="Path 96" d="M1561.7,632.42a34.224,34.224,0,0,0,2.545-3.36c.379-.781-.331-4.147-1.214-4.125-.557.014-1.242,2.052-1.851,2.793s-3.258,1.8-2.137,4.91C1559.166,632.989,1561.7,632.42,1561.7,632.42Z" transform="translate(-1558.767 -624.935)" fill="#f6aa76"/>
          </g>
          <g id="Group_98" data-name="Group 98" transform="translate(96.472 15.82)">
            <path id="Path_97" data-name="Path 97" d="M1633.9,644.482c.611.917-.135,3.485-3.6,2.686-2.273-.525-6.7-4.212-5.9-6.094.38-.894,2.559-2.994,3.93-8.454l.4.189,6.667,3.179s-.723,2.169-1.258,4.249A9.163,9.163,0,0,0,1633.9,644.482Z" transform="translate(-1624.305 -620.594)" fill="#ffc49b"/>
            <path id="Path_98" data-name="Path 98" d="M1630.972,637.654s-.722,2.169-1.257,4.249c-3.9-1.112-5.064-5.225-5.409-7.428Z" transform="translate(-1619.884 -622.26)" fill="#f4a269"/>
            <path id="Path_99" data-name="Path 99" d="M1584.54,541.378s-9.345,2.168-10.606-3.673-3.316-9.495,2.6-11.126,7.558.346,8.453,2.194S1586.938,540.664,1584.54,541.378Z" transform="translate(-1569.656 -524.79)" fill="#ffc49b"/>
            <path id="Path_100" data-name="Path 100" d="M1634.058,515.225s-.059,6.722-5.009,9.984c-2.9,1.909-3.033,3.863-3.033,3.863a55.805,55.805,0,0,1-1.987-10.078S1631.421,512.379,1634.058,515.225Z" transform="translate(-1622.942 -514.495)" fill="#163560"/>
            <path id="Path_101" data-name="Path 101" d="M1569.652,516.251a16.209,16.209,0,0,1,3.991,1.936c1.82,1.506,2.294,6.4,2.077,7.623,0,0,.5-8.512-2.244-10.681C1570.57,512.83,1569.652,516.251,1569.652,516.251Z" transform="translate(-1559.124 -514.335)" fill="#163560"/>
          </g>
          <path id="Path_102" data-name="Path 102" d="M1659.36,736.7a48.826,48.826,0,0,0,3.219,6.333c4.46,7.373,9.913,11.828,11.883,9.752.545-.574,1.92-1.409.482-4.5-1.11-2.385-2.485-5.368-3.834-8.3-2.782-6.053-5.45-11.9-5.45-11.9C1664.812,728.08,1655.877,728.391,1659.36,736.7Z" transform="translate(-1571.503 -690.528)" fill="#ffc49b"/>
          <path id="Path_103" data-name="Path 103" d="M1493.332,905.885c.306-.183,17.121,3.9,22.328,5.172l1.521.372v1.962s-17.4.817-20.116-.431a19.808,19.808,0,0,1-5.312-4.152Z" transform="translate(-1396.144 -850.25)" fill="#ffc49b"/>
          <path id="Path_104" data-name="Path 104" d="M1703.324,736.7a48.826,48.826,0,0,0,3.219,6.333,24.8,24.8,0,0,0,8.531-3.048c-2.781-6.053-5.45-11.9-5.45-11.9C1708.775,728.08,1699.841,728.391,1703.324,736.7Z" transform="translate(-1615.467 -690.528)" fill="#ec4946"/>
          <g id="Group_99" data-name="Group 99" transform="translate(132.949 42.801)">
            <path id="Path_105" data-name="Path 105" d="M1209.561,966.634h-18.679a1.489,1.489,0,0,1,1.489-1.489h17.19Z" transform="translate(-1190.882 -946.291)" fill="#16364d"/>
            <path id="Path_106" data-name="Path 106" d="M914.491,779.71H943.37l-6.927,20.343H907.377Z" transform="translate(-895.866 -779.71)" fill="#004a80"/>
            <path id="Path_107" data-name="Path 107" d="M939.188,779.706l-6.927,20.343H903.195l7.114-20.343Z" transform="translate(-891.259 -779.706)" fill="#16364d"/>
            <path id="Path_108" data-name="Path 108" d="M1058.813,865.465a1.877,1.877,0,0,1-1.732,1.407,1.084,1.084,0,0,1-1.083-1.407,1.878,1.878,0,0,1,1.732-1.407A1.084,1.084,0,0,1,1058.813,865.465Z" transform="translate(-1026.454 -855.482)" fill="#fff"/>
          </g>
          <g id="Group_104" data-name="Group 104" transform="translate(0 95.734)">
            <path id="Path_109" data-name="Path 109" d="M2295.207,1301.077v1.184c0,.415-.134.753-.3.753H2251.7c-.164,0-.3-.338-.3-.753v-1.184c0-.414.135-.753.3-.753h43.205C2295.073,1300.324,2295.207,1300.663,2295.207,1301.077Z" transform="translate(-2251.406 -1300.324)" fill="#5385c8"/>
            <path id="Path_110" data-name="Path 110" d="M2286.253,1301.077v1.184c0,.415-.123.753-.273.753h-34.3c-.15,0-.273-.338-.273-.753v-1.184c0-.414.123-.753.273-.753h34.3C2286.13,1300.324,2286.253,1300.663,2286.253,1301.077Z" transform="translate(-2242.452 -1300.324)" fill="#749ed6"/>
            <rect id="Rectangle_44" data-name="Rectangle 44" width="30.673" height="44.707" transform="translate(2.193 2.69)" fill="#749ed6"/>
            <rect id="Rectangle_45" data-name="Rectangle 45" width="30.673" height="44.707" transform="translate(10.789 2.69)" fill="#5385c8"/>
            <g id="Group_103" data-name="Group 103" transform="translate(12.437 3.953)">
              <g id="Group_100" data-name="Group 100">
                <path id="Path_111" data-name="Path 111" d="M2318,1339.205h-27.377v40.976H2318Zm-27.081.3H2317.7v40.385h-26.785Z" transform="translate(-2290.623 -1339.205)" fill="#fcfdff"/>
              </g>
              <g id="Group_101" data-name="Group 101" transform="translate(0.148 13.555)">
                <rect id="Rectangle_46" data-name="Rectangle 46" width="27.081" height="0.296" fill="#fcfdff"/>
              </g>
              <g id="Group_102" data-name="Group 102" transform="translate(0.148 27.375)">
                <rect id="Rectangle_47" data-name="Rectangle 47" width="27.081" height="0.296" fill="#fcfdff"/>
              </g>
              <path id="Path_112" data-name="Path 112" d="M2399.068,1357.362h-5.025a.445.445,0,0,1-.443-.443h0a.445.445,0,0,1,.443-.443h5.025a.445.445,0,0,1,.443.443h0A.445.445,0,0,1,2399.068,1357.362Z" transform="translate(-2382.605 -1354.719)" fill="#fcfdff"/>
              <path id="Path_113" data-name="Path 113" d="M2399.068,1490.276h-5.025a.445.445,0,0,1-.443-.443h0a.445.445,0,0,1,.443-.443h5.025a.445.445,0,0,1,.443.443h0A.445.445,0,0,1,2399.068,1490.276Z" transform="translate(-2382.605 -1474.119)" fill="#fcfdff"/>
              <path id="Path_114" data-name="Path 114" d="M2399.068,1628.83h-5.025a.445.445,0,0,1-.443-.443h0a.445.445,0,0,1,.443-.443h5.025a.445.445,0,0,1,.443.443h0A.445.445,0,0,1,2399.068,1628.83Z" transform="translate(-2382.605 -1598.586)" fill="#fcfdff"/>
            </g>
          </g>
          <g id="Group_111" data-name="Group 111" transform="translate(48.814 0)">
            <path id="Rectangle_48" data-name="Rectangle 48" d="M11.426,0h.7A11.425,11.425,0,0,1,23.554,11.425v0A11.425,11.425,0,0,1,12.129,22.851h-.7A11.425,11.425,0,0,1,0,11.426v0A11.426,11.426,0,0,1,11.426,0Z" transform="translate(0 0)" fill="#5385c8"/>
            <path id="Rectangle_49" data-name="Rectangle 49" d="M10.435,0h.642A10.435,10.435,0,0,1,21.513,10.435v0A10.435,10.435,0,0,1,11.078,20.871h-.642A10.436,10.436,0,0,1,0,10.435v0A10.435,10.435,0,0,1,10.435,0Z" transform="translate(1.02 0.99)" fill="#dfebfd"/>
            <g id="Group_107" data-name="Group 107" transform="translate(2.796 2.588)">
              <g id="Group_105" data-name="Group 105">
                <path id="Path_115" data-name="Path 115" d="M2098.2,381.349a.488.488,0,1,0-.488.488A.488.488,0,0,0,2098.2,381.349Z" transform="translate(-2088.73 -380.861)" fill="#5385c8"/>
                <path id="Path_116" data-name="Path 116" d="M2131.275,389.035a.488.488,0,1,0-.189.664A.488.488,0,0,0,2131.275,389.035Z" transform="translate(-2125.744 -387.857)" fill="#5385c8"/>
                <path id="Path_117" data-name="Path 117" d="M2158.569,413.254a.488.488,0,1,0,.146.675A.488.488,0,0,0,2158.569,413.254Z" transform="translate(-2156.41 -409.397)" fill="#5385c8"/>
                <path id="Path_118" data-name="Path 118" d="M2170.329,449.308a.488.488,0,1,0,.488.488A.488.488,0,0,0,2170.329,449.308Z" transform="translate(-2169.841 -441.303)" fill="#5385c8"/>
                <path id="Path_119" data-name="Path 119" d="M2159.74,489.386a.488.488,0,1,0,.69,0A.488.488,0,0,0,2159.74,489.386Z" transform="translate(-2158.399 -476.568)" fill="#5385c8"/>
                <path id="Path_120" data-name="Path 120" d="M2133.541,515.652a.488.488,0,1,0,.69,0A.489.489,0,0,0,2133.541,515.652Z" transform="translate(-2129.137 -499.762)" fill="#5385c8"/>
                <path id="Path_121" data-name="Path 121" d="M2098.2,526.587a.488.488,0,1,0-.488.488A.488.488,0,0,0,2098.2,526.587Z" transform="translate(-2088.73 -509.114)" fill="#5385c8"/>
              </g>
              <g id="Group_106" data-name="Group 106" transform="translate(12.384 0.927)">
                <path id="Path_122" data-name="Path 122" d="M2064.012,389.035a.488.488,0,1,1,.189.664A.488.488,0,0,1,2064.012,389.035Z" transform="translate(-2063.95 -388.784)" fill="#5385c8"/>
                <path id="Path_123" data-name="Path 123" d="M2036.718,413.254a.488.488,0,1,1-.146.675A.488.488,0,0,1,2036.718,413.254Z" transform="translate(-2033.283 -410.324)" fill="#5385c8"/>
                <path id="Path_124" data-name="Path 124" d="M2024.958,449.308a.488.488,0,1,1-.488.488A.488.488,0,0,1,2024.958,449.308Z" transform="translate(-2019.854 -442.23)" fill="#5385c8"/>
                <path id="Path_125" data-name="Path 125" d="M2035.548,489.386a.488.488,0,1,1-.69,0A.488.488,0,0,1,2035.548,489.386Z" transform="translate(-2031.296 -477.495)" fill="#5385c8"/>
                <path id="Path_126" data-name="Path 126" d="M2061.747,515.652a.488.488,0,1,1-.69,0A.488.488,0,0,1,2061.747,515.652Z" transform="translate(-2060.559 -500.689)" fill="#5385c8"/>
              </g>
            </g>
            <g id="Group_110" data-name="Group 110" transform="translate(8.127 4.985)">
              <path id="Path_127" data-name="Path 127" d="M2101.246,449.8a.488.488,0,1,0-.488.488A.488.488,0,0,0,2101.246,449.8Z" transform="translate(-2097.464 -443.701)" fill="#b7d3f3"/>
              <g id="Group_108" data-name="Group 108" transform="translate(3.227)">
                <rect id="Rectangle_50" data-name="Rectangle 50" width="0.133" height="6.095" fill="#b7d3f3"/>
              </g>
              <g id="Group_109" data-name="Group 109" transform="translate(0 3.393)">
                <rect id="Rectangle_51" data-name="Rectangle 51" width="4.108" height="0.4" transform="translate(3.231 2.851) rotate(-141.865)" fill="#b7d3f3"/>
              </g>
            </g>
          </g>
          <g id="Group_118" data-name="Group 118" transform="translate(147.571 70.968)">
            <g id="Group_113" data-name="Group 113" transform="translate(38.415 28.691)">
              <path id="Path_128" data-name="Path 128" d="M498.26,1351.091s-5.027-5.865-.31-9.591c0,0,3.446-2.086,6.255-1.917,0,0-3.981,6.676-2.693,7.34s3.9-7.759,3.9-7.759,7.842-.76,10.364.453c0,0-6.7,5.486-5.292,5.812s8.653-5.058,8.653-5.058,7.3,1.242,6.909,5.694-2.9,5.827-4.009,5.709-7.571-2.587-7.712-1.681,3.751,3.865,6.476,4c0,0-5.145,5.675-8.565,4.037s-3.712-4.234-5.843-5.207-3.951-.971-3.071.022,4.738,1.958,5.957,4.114,2.313,3.611-1.225,3.078-9.289-3.121-9.542-6.086Z" transform="translate(-489.762 -1338.929)" fill="#5b9a33"/>
              <g id="Group_112" data-name="Group 112" transform="translate(0 7.222)">
                <path id="Path_129" data-name="Path 129" d="M559.961,1410s-19.823-.764-24.2,4.905a14.337,14.337,0,0,1-3.947,5.54l-.464,1.266s3.435-3.622,4.664-3.841C536.013,1417.867,534.091,1410.843,559.961,1410Z" transform="translate(-527.263 -1409.962)" fill="#5b9a33"/>
                <path id="Path_130" data-name="Path 130" d="M801.738,1508.624a12.447,12.447,0,0,0-4.55,8.769l.772.069s1.359-5.813,3.815-8.087S801.738,1508.624,801.738,1508.624Z" transform="translate(-797.187 -1498.145)" fill="#5b9a33"/>
              </g>
            </g>
            <g id="Group_115" data-name="Group 115" transform="translate(0 12.766)">
              <path id="Path_131" data-name="Path 131" d="M919.881,1203.013s8-4.479,4.265-10.557c0,0-2.986-3.732-6.185-4.692,0,0,1.706,9.064,0,9.277s-1.173-10.237-1.173-10.237-8.424-4.052-11.73-3.732c0,0,5.225,8.85,3.519,8.637s-7.571-9.17-7.571-9.17-8.637-1.6-10.023,3.519.853,7.677,2.133,8,9.49.213,9.277,1.28-5.758,2.772-8.851,1.813c0,0,3.412,8.424,7.891,8s5.865-3.2,8.637-3.412,4.8.533,3.412,1.279-6.078.245-8.317,2.148-4.052,3.077.107,3.93,11.623.32,13.116-2.879Z" transform="translate(-890.546 -1182.303)" fill="#5b9a33" stroke="rgba(0,0,0,0)" stroke-width="1"/>
              <g id="Group_114" data-name="Group 114" transform="translate(4.383 5.355)">
                <path id="Path_132" data-name="Path 132" d="M921.282,1234.972s22.393,7.251,24.952,15.355a17.01,17.01,0,0,0,2.133,7.784v1.6s-2.346-5.438-3.625-6.185C944.741,1253.526,949.753,1246.488,921.282,1234.972Z" transform="translate(-921.282 -1234.972)" fill="#5b9a33" stroke="rgba(0,0,0,0)" stroke-width="1"/>
                <path id="Path_133" data-name="Path 133" d="M901.783,1453.763a14.769,14.769,0,0,1,1.485,11.628l-.888-.239s.862-7.031-.944-10.567S901.783,1453.763,901.783,1453.763Z" transform="translate(-874.698 -1430.624)" fill="#5b9a33" stroke="rgba(0,0,0,0)" stroke-width="1"/>
              </g>
            </g>
            <g id="Group_117" data-name="Group 117" transform="translate(35.128 0)">
              <path id="Path_134" data-name="Path 134" d="M443.721,1084.041s-10.542-5.9-5.622-13.916c0,0,3.936-4.92,8.153-6.185,0,0-2.249,11.948,0,12.229s1.546-13.494,1.546-13.494,11.1-5.341,15.462-4.92c0,0-6.888,11.667-4.639,11.386s9.98-12.088,9.98-12.088,11.386-2.109,13.213,4.639-1.125,10.12-2.811,10.542-12.51.281-12.229,1.687,7.59,3.654,11.667,2.39c0,0-4.5,11.1-10.4,10.542s-7.731-4.217-11.386-4.5-6.325.7-4.5,1.687,8.012.322,10.964,2.832,5.341,4.056-.141,5.18-15.321.422-17.289-3.8Z" transform="translate(-436.791 -1056.741)" fill="#649c39"/>
              <g id="Group_116" data-name="Group 116" transform="translate(1.363 7.059)">
                <path id="Path_135" data-name="Path 135" d="M529.317,1126.168s-29.518,9.558-32.892,20.241a22.423,22.423,0,0,1-2.811,10.261v2.108s3.092-7.169,4.779-8.152C498.393,1150.626,491.787,1141.349,529.317,1126.168Z" transform="translate(-490.857 -1126.168)" fill="#649c39"/>
                <path id="Path_136" data-name="Path 136" d="M833.653,1414.575A19.469,19.469,0,0,0,831.7,1429.9l1.171-.314s-1.137-9.268,1.245-13.93S833.653,1414.575,833.653,1414.575Z" transform="translate(-830.896 -1384.073)" fill="#649c39"/>
              </g>
            </g>
            <path id="Path_137" data-name="Path 137" d="M638.155,1573.938a20.65,20.65,0,0,0,20.651-20.65h-41.3A20.65,20.65,0,0,0,638.155,1573.938Z" transform="translate(-596.452 -1502.802)" fill="#fff"/>
            <path id="Path_138" data-name="Path 138" d="M656.571,1744.22H614.7a2.548,2.548,0,0,1,2.548-2.548h36.776a2.547,2.547,0,0,1,2.548,2.548Z" transform="translate(-593.933 -1672.033)" fill="#fff"/>
            <rect id="Rectangle_52" data-name="Rectangle 52" width="42.45" height="0.633" transform="translate(20.374 50.485)" fill="#4564d8"/>
          </g>
          <g id="Group_121" data-name="Group 121" transform="translate(82.084 63.144)">
            <path id="Rectangle_53" data-name="Rectangle 53" d="M2.288,0h96.1a2.288,2.288,0,0,1,2.288,2.288v0a2.288,2.288,0,0,1-2.288,2.288H2.288A2.288,2.288,0,0,1,0,2.288v0A2.288,2.288,0,0,1,2.288,0Z" transform="translate(0 0)" fill="#fdba69"/>
            <g id="Group_119" data-name="Group 119" transform="translate(83.378 2.288)">
              <path id="Path_139" data-name="Path 139" d="M917.521,1079.974l.054-.007a1.162,1.162,0,0,0,1.026-1.292l-9.873-76.378-5.533.159,13.269,76.751A.949.949,0,0,0,917.521,1079.974Z" transform="translate(-903.195 -1002.297)" fill="#fdba69"/>
            </g>
            <g id="Group_120" data-name="Group 120" transform="translate(0.293 2.288)">
              <path id="Path_140" data-name="Path 140" d="M1721.46,1079.974l-.054-.007a1.162,1.162,0,0,1-1.026-1.292l9.873-76.378,5.533.159-13.269,76.751A.949.949,0,0,1,1721.46,1079.974Z" transform="translate(-1720.371 -1002.297)" fill="#fdba69"/>
            </g>
          </g>
          <g id="Group_126" data-name="Group 126" transform="translate(10.532 71.866)">
            <g id="Group_122" data-name="Group 122" transform="translate(10.214 2.772)">
              <rect id="Rectangle_54" data-name="Rectangle 54" width="1.157" height="13.637" transform="translate(1.142 15.926) rotate(-170.875)" fill="#b5453c"/>
              <path id="Path_141" data-name="Path 141" d="M2446.608,1092.826l.19,2.462-1.142-.183Z" transform="translate(-2443.494 -1092.826)" fill="#efcbab"/>
            </g>
            <g id="Group_123" data-name="Group 123" transform="translate(0 3.932)">
              <rect id="Rectangle_55" data-name="Rectangle 55" width="1.157" height="13.637" transform="matrix(-0.983, 0.183, -0.183, -0.983, 3.629, 15.662)" fill="#b5453c"/>
              <path id="Path_142" data-name="Path 142" d="M2567.561,1104.244l1.007,2.255-1.137.211Z" transform="translate(-2567.43 -1104.244)" fill="#efcbab"/>
            </g>
            <g id="Group_124" data-name="Group 124" transform="translate(1.442 0)">
              <rect id="Rectangle_56" data-name="Rectangle 56" width="1.157" height="13.637" transform="matrix(-0.983, 0.183, -0.183, -0.983, 3.628, 15.662)" fill="#b5453c"/>
              <path id="Path_143" data-name="Path 143" d="M2553.375,1065.566l1.007,2.255-1.138.211Z" transform="translate(-2553.245 -1065.566)" fill="#efcbab"/>
            </g>
            <g id="Group_125" data-name="Group 125" transform="translate(0.123 10.735)">
              <rect id="Rectangle_57" data-name="Rectangle 57" width="9.113" height="13.134" transform="translate(0)" fill="#403832"/>
              <rect id="Rectangle_58" data-name="Rectangle 58" width="9.113" height="13.134" transform="translate(4.557)" fill="#1e1d1b"/>
            </g>
          </g>
          <g id="Group_127" data-name="Group 127" transform="translate(27.615 136.301)">
            <path id="Path_144" data-name="Path 144" d="M2335.165,1702.72c.1.2.309,1.26.688,2.137h0a2.21,2.21,0,0,0,.873,1.153c.952.443,2.551-.317,2.551-.317a21.077,21.077,0,0,0,3.008.19c.267-.126.533-4.241.533-4.241s-2.132-2.215-2.323-2.279-1.751.76-2.018.76-1.827-1.019-2.247-.764A7.463,7.463,0,0,0,2335.165,1702.72Z" transform="translate(-2335.146 -1699.32)" fill="#fff"/>
            <path id="Path_145" data-name="Path 145" d="M2357.989,1700.492a7.757,7.757,0,0,0,.609,1.171c.133.1,1.409-1.93,1.409-1.93C2359.817,1699.669,2358.255,1700.492,2357.989,1700.492Z" transform="translate(-2354.657 -1699.687)" fill="#f2f7fe"/>
            <path id="Path_146" data-name="Path 146" d="M2380.973,1710.242a18.609,18.609,0,0,1,1.923,1.973,10.579,10.579,0,0,1-2.183,1.329c-.076-.042.444-1.414.418-1.646S2380.973,1710.242,2380.973,1710.242Z" transform="translate(-2379.856 -1709.131)" fill="#f2f7fe"/>
            <path id="Path_147" data-name="Path 147" d="M2399.952,1703.084c.095.2.309,1.26.688,2.137h0l-.232-2.012.609-3.485A7.459,7.459,0,0,0,2399.952,1703.084Z" transform="translate(-2399.933 -1699.684)" fill="#f2f7fe"/>
            <path id="Path_148" data-name="Path 148" d="M2335.146,1726.226a21.112,21.112,0,0,0,3.008.19c.267-.127.533-4.241.533-4.241s-.6,2.11-.609,2.215-.857-.125-.857-.125Z" transform="translate(-2331.015 -1719.851)" fill="#f2f7fe"/>
            <path id="Path_149" data-name="Path 149" d="M2343.1,1722.175l-.3,1.091h-.628l.467-.458Z" transform="translate(-2336.142 -1719.851)" fill="#f2f7fe"/>
          </g>
          <g id="Group_128" data-name="Group 128" transform="translate(146.455 136.301)">
            <path id="Path_150" data-name="Path 150" d="M1166.314,1702.72c.1.2.309,1.26.688,2.137h0a2.207,2.207,0,0,0,.873,1.153c.952.443,2.551-.317,2.551-.317a21.078,21.078,0,0,0,3.008.19c.266-.126.533-4.241.533-4.241s-2.132-2.215-2.323-2.279-1.751.76-2.018.76-1.828-1.019-2.247-.764A7.463,7.463,0,0,0,1166.314,1702.72Z" transform="translate(-1166.295 -1699.32)" fill="#fff"/>
            <path id="Path_151" data-name="Path 151" d="M1189.14,1700.492a7.768,7.768,0,0,0,.609,1.171c.133.1,1.409-1.93,1.409-1.93C1190.968,1699.669,1189.407,1700.492,1189.14,1700.492Z" transform="translate(-1185.808 -1699.687)" fill="#f2f7fe"/>
            <path id="Path_152" data-name="Path 152" d="M1212.124,1710.242a18.611,18.611,0,0,1,1.923,1.973,10.57,10.57,0,0,1-2.183,1.329c-.076-.042.444-1.414.419-1.646S1212.124,1710.242,1212.124,1710.242Z" transform="translate(-1211.007 -1709.131)" fill="#f2f7fe"/>
            <path id="Path_153" data-name="Path 153" d="M1231.1,1703.084c.1.2.309,1.26.688,2.137h0l-.232-2.012.609-3.485A7.462,7.462,0,0,0,1231.1,1703.084Z" transform="translate(-1231.083 -1699.684)" fill="#f2f7fe"/>
            <path id="Path_154" data-name="Path 154" d="M1166.295,1726.226a21.112,21.112,0,0,0,3.008.19c.266-.127.533-4.241.533-4.241s-.6,2.11-.609,2.215-.857-.125-.857-.125Z" transform="translate(-1162.164 -1719.851)" fill="#f2f7fe"/>
            <path id="Path_155" data-name="Path 155" d="M1174.25,1722.175l-.3,1.091h-.628l.466-.458Z" transform="translate(-1167.292 -1719.851)" fill="#f2f7fe"/>
          </g>
          <g id="Group_129" data-name="Group 129" transform="translate(19.046 88.807)">
            <path id="Path_156" data-name="Path 156" d="M2417.733,1235.575c.086.206.243,1.3.579,2.209h0a2.243,2.243,0,0,0,.822,1.22c.941.5,2.608-.178,2.608-.178a21.442,21.442,0,0,0,3.044.362c.278-.114.779-4.277.779-4.277s-2.041-2.369-2.23-2.445-1.821.673-2.092.658-1.8-1.138-2.239-.9A7.589,7.589,0,0,0,2417.733,1235.575Z" transform="translate(-2417.72 -1232.192)" fill="#fff"/>
            <path id="Path_157" data-name="Path 157" d="M2439.658,1235.519a7.931,7.931,0,0,0,.553,1.224c.13.1,1.539-1.881,1.539-1.881C2441.561,1234.786,2439.929,1235.534,2439.658,1235.519Z" transform="translate(-2436.135 -1234.585)" fill="#f2f7fe"/>
            <path id="Path_158" data-name="Path 158" d="M2464.861,1243.211a18.921,18.921,0,0,1,1.842,2.111,10.75,10.75,0,0,1-2.292,1.227c-.075-.047.531-1.411.518-1.648S2464.861,1243.211,2464.861,1243.211Z" transform="translate(-2463.604 -1242.091)" fill="#f2f7fe"/>
            <path id="Path_159" data-name="Path 159" d="M2482.263,1235.864c.085.206.243,1.3.579,2.209h0l-.123-2.056.814-3.505A7.586,7.586,0,0,0,2482.263,1235.864Z" transform="translate(-2482.25 -1232.48)" fill="#f2f7fe"/>
            <path id="Path_160" data-name="Path 160" d="M2417.72,1262.867a21.479,21.479,0,0,0,3.044.362c.278-.114.779-4.277.779-4.277s-.724,2.109-.743,2.215-.863-.175-.863-.175Z" transform="translate(-2413.698 -1256.231)" fill="#f2f7fe"/>
            <path id="Path_161" data-name="Path 161" d="M2425.859,1258.558l-.371,1.091-.638-.036.5-.439Z" transform="translate(-2418.739 -1255.877)" fill="#f2f7fe"/>
          </g>
          <g id="Group_130" data-name="Group 130" transform="translate(34.689 90.869)">
            <path id="Path_162" data-name="Path 162" d="M2281.179,1254.74c.066.14.189.879.45,1.5h0a1.567,1.567,0,0,0,.637.834,3.4,3.4,0,0,0,2.023-.09,19.083,19.083,0,0,0,2.361.28,14.774,14.774,0,0,0,.6-2.882s-1.584-1.625-1.731-1.678-1.413.434-1.623.421-1.4-.79-1.737-.635A4.672,4.672,0,0,0,2281.179,1254.74Z" transform="translate(-2281.169 -1252.469)" fill="#fff"/>
            <path id="Path_163" data-name="Path 163" d="M2298.2,1255.162a5.114,5.114,0,0,0,.429.833c.1.072,1.193-1.254,1.193-1.254C2299.67,1254.689,2298.405,1255.176,2298.2,1255.162Z" transform="translate(-2295.463 -1254.507)" fill="#c4d9e8"/>
            <path id="Path_164" data-name="Path 164" d="M2317.734,1259.9a13.809,13.809,0,0,1,1.429,1.449,8.652,8.652,0,0,1-1.777.8c-.059-.032.411-.947.4-1.108S2317.734,1259.9,2317.734,1259.9Z" transform="translate(-2316.76 -1259.142)" fill="#dfebf5"/>
            <path id="Path_165" data-name="Path 165" d="M2331.244,1254.919c.066.14.189.879.45,1.5h0l-.1-1.391.631-2.36A4.67,4.67,0,0,0,2331.244,1254.919Z" transform="translate(-2331.234 -1252.649)" fill="#c4d9e8"/>
            <path id="Path_166" data-name="Path 166" d="M2281.169,1273.885a19.083,19.083,0,0,0,2.361.28,14.774,14.774,0,0,0,.6-2.882s-.561,1.418-.575,1.489-.669-.129-.669-.129Z" transform="translate(-2278.048 -1269.37)" fill="#dfebf5"/>
            <path id="Path_167" data-name="Path 167" d="M2287.482,1270.934l-.287.733-.5-.031.387-.291Z" transform="translate(-2281.959 -1269.056)" fill="#dfebf5"/>
          </g>
          <path id="Path_168" data-name="Path 168" d="M1404.73,945.953s5.539-1.591,7.08-1.151c1.088.31,2.476,1.919,3.2,2.84a.407.407,0,0,1-.325.658,8.456,8.456,0,0,1-3.21-.482c-.74-.389-1.843.468-3.07.473-.943,0-2.155,0-2.155,0Z" transform="translate(-1285.214 -885.145)" fill="#ffc49b"/>
        </g>
      </g>
    </g>
  </g>
</svg>
