<svg id="safe-box_1_" data-name="safe-box (1)" xmlns="http://www.w3.org/2000/svg" width="24" height="24" viewBox="0 0 24 24">
  <path id="Path_22" data-name="Path 22" d="M20.906,0H3.094A3.1,3.1,0,0,0,0,3.094V20.906A3.1,3.1,0,0,0,3.094,24H20.906A3.1,3.1,0,0,0,24,20.906V3.094A3.1,3.1,0,0,0,20.906,0ZM19.875,18.187a1.689,1.689,0,0,1-1.687,1.688H5.813a1.689,1.689,0,0,1-1.688-1.687V5.813A1.689,1.689,0,0,1,5.813,4.125H18.187a1.689,1.689,0,0,1,1.688,1.688Z" fill="#6d87e5"/>
  <path id="Path_23" data-name="Path 23" d="M133.337,120H120.2a.2.2,0,0,0-.2.2v13.138a.2.2,0,0,0,.2.2h13.138a.2.2,0,0,0,.2-.2V120.2A.2.2,0,0,0,133.337,120Zm-2.986,7.962a1.194,1.194,0,1,1,1.194-1.194A1.2,1.2,0,0,1,130.351,127.962Z" transform="translate(-114.768 -114.768)" fill="#6d87e5"/>
</svg>
