<svg xmlns="http://www.w3.org/2000/svg" width="20" height="21.92" viewBox="0 0 20 21.92">
  <g id="bell_3_" data-name="bell (3)" transform="translate(0 -2.08)" opacity="0.5">
    <path id="Path_30" data-name="Path 30" d="M19.379,16.913A6.7,6.7,0,0,1,17,11.788V9a7.006,7.006,0,0,0-6-6.92H9A7,7,0,0,0,3,9v2.788A6.705,6.705,0,0,1,.612,16.921,1.75,1.75,0,0,0,1.75,20h16.5a1.75,1.75,0,0,0,1.129-3.087Zm0,0" transform="translate(0)" fill="#4564d8"/>
    <path id="Path_31" data-name="Path 31" d="M138.627,451a3.756,3.756,0,0,0,3.674-3h-7.348A3.756,3.756,0,0,0,138.627,451Zm0,0" transform="translate(-128.627 -427)" fill="#4564d8"/>
  </g>
</svg>
