<svg xmlns="http://www.w3.org/2000/svg" width="36" height="36" viewBox="0 0 36 36">
  <g id="Group_84" data-name="Group 84" transform="translate(-825 -161)">
    <rect id="Rectangle_24" data-name="Rectangle 24" width="36" height="36" rx="12" transform="translate(825 161)" fill="#0dc3e7" opacity="0.19"/>
    <g id="calendar_4_" data-name="calendar (4)" transform="translate(835.047 171.047)">
      <g id="Group_29" data-name="Group 29" transform="translate(0)">
        <path id="Path_32" data-name="Path 32" d="M118.993,258.6a.356.356,0,0,0-.357-.356h-1.245a.356.356,0,0,0-.356.356v1.244a.356.356,0,0,0,.356.357h1.245a.356.356,0,0,0,.357-.357V258.6Z" transform="translate(-113.442 -249.929)" fill="#0dc8e9"/>
        <path id="Path_33" data-name="Path 33" d="M215.628,258.6a.356.356,0,0,0-.356-.356h-1.245a.356.356,0,0,0-.356.356v1.244a.357.357,0,0,0,.356.357h1.245a.356.356,0,0,0,.356-.357Z" transform="translate(-206.966 -249.929)" fill="#0dc8e9"/>
        <path id="Path_34" data-name="Path 34" d="M312.256,258.6a.356.356,0,0,0-.356-.356h-1.245a.356.356,0,0,0-.357.356v1.244a.357.357,0,0,0,.357.357H311.9a.356.356,0,0,0,.356-.357Z" transform="translate(-300.484 -249.929)" fill="#0dc8e9"/>
        <path id="Path_35" data-name="Path 35" d="M118.993,355.232a.356.356,0,0,0-.357-.357h-1.245a.356.356,0,0,0-.356.357v1.244a.356.356,0,0,0,.356.356h1.245a.356.356,0,0,0,.357-.356v-1.244Z" transform="translate(-113.442 -343.452)" fill="#0dc8e9"/>
        <path id="Path_36" data-name="Path 36" d="M215.628,355.232a.356.356,0,0,0-.356-.357h-1.245a.356.356,0,0,0-.356.357v1.244a.356.356,0,0,0,.356.356h1.245a.356.356,0,0,0,.356-.356Z" transform="translate(-206.966 -343.452)" fill="#0dc8e9"/>
        <path id="Path_37" data-name="Path 37" d="M312.256,355.232a.356.356,0,0,0-.356-.357h-1.245a.356.356,0,0,0-.357.357v1.244a.356.356,0,0,0,.357.356H311.9a.356.356,0,0,0,.356-.356v-1.244Z" transform="translate(-300.484 -343.452)" fill="#0dc8e9"/>
        <path id="Path_38" data-name="Path 38" d="M19.408,54.149v1.9A1.552,1.552,0,0,1,17.852,57.6h-.982a1.56,1.56,0,0,1-1.565-1.551V54.142H10.881V56.05A1.56,1.56,0,0,1,9.316,57.6H8.335A1.552,1.552,0,0,1,6.779,56.05v-1.9a1.415,1.415,0,0,0-1.368,1.407V66.7a1.416,1.416,0,0,0,1.408,1.417H19.368A1.417,1.417,0,0,0,20.776,66.7V55.556A1.415,1.415,0,0,0,19.408,54.149ZM18.952,66a.609.609,0,0,1-.609.609H7.817A.609.609,0,0,1,7.208,66V60.248a.609.609,0,0,1,.609-.609H18.344a.609.609,0,0,1,.609.609V66Z" transform="translate(-5.411 -52.399)" fill="#0dc8e9"/>
        <path id="Path_39" data-name="Path 39" d="M80.084,4.183h.971a.533.533,0,0,0,.534-.533V.533A.534.534,0,0,0,81.055,0h-.971a.533.533,0,0,0-.534.533V3.65A.533.533,0,0,0,80.084,4.183Z" transform="translate(-77.164)" fill="#0dc8e9"/>
        <path id="Path_40" data-name="Path 40" d="M344.992,4.183h.971a.533.533,0,0,0,.533-.533V.533A.533.533,0,0,0,345.963,0h-.971a.534.534,0,0,0-.534.533V3.65A.533.533,0,0,0,344.992,4.183Z" transform="translate(-333.544)" fill="#0dc8e9"/>
      </g>
    </g>
  </g>
</svg>
