<svg xmlns="http://www.w3.org/2000/svg" width="57" height="57" viewBox="0 0 57 57">
  <g id="Group_156" data-name="Group 156" transform="translate(-1118 -689)">
    <rect id="Rectangle_27" data-name="Rectangle 27" width="57" height="57" rx="16" transform="translate(1118 689)" fill="#fff"/>
    <g id="Solid" transform="translate(1050 674)">
      <path id="Path_57" data-name="Path 57" d="M128.987,82.351a8.77,8.77,0,0,1,3.009.135,7.824,7.824,0,0,0,2.824.109A10.6,10.6,0,0,1,134.391,80h-5.045A10.6,10.6,0,0,1,128.987,82.351Z" transform="translate(-38.84 -45.486)" fill="#3760f6"/>
      <path id="Path_58" data-name="Path 58" d="M126.705,32.419a.42.42,0,0,0-.419-.419h-5.867a.42.42,0,0,0-.419.419v1.257h6.705Z" transform="translate(-30.324)" fill="#3760f6"/>
      <path id="Path_59" data-name="Path 59" d="M248.019,217.249l0,.052c.1.437,1.721,1.213,4.6,1.213s4.5-.776,4.6-1.213l0-.052c-.02-.429-1.645-1.249-4.609-1.249S248.039,216.82,248.019,217.249Z" transform="translate(-151.637 -174.361)" fill="#3760f6"/>
      <path id="Path_60" data-name="Path 60" d="M95.555,144.925a1,1,0,0,1-.012-.151c0-.765.847-1.327,2.064-1.675a9.776,9.776,0,0,0-.342-.924L96.4,140.16c-.052-.121-.1-.244-.149-.367a8.638,8.638,0,0,1-3.279-.1,7.932,7.932,0,0,0-3.111-.063c-.066.179-.135.355-.209.526l-.863,2.014A9.733,9.733,0,0,0,88,146.031v10.058a1.259,1.259,0,0,0,1.257,1.257h7.5l-.847-8.407Zm-5.879,1.106v1.676h-.838v-1.676a8.9,8.9,0,0,1,.724-3.526l.77.33A8.067,8.067,0,0,0,89.676,146.031Zm1.012-4.026-.77-.33.452-1.055.77.33Z" transform="translate(0 -101.878)" fill="#3760f6"/>
      <path id="Path_61" data-name="Path 61" d="M250.357,265.894a7.505,7.505,0,0,1,4.319,0,6.643,6.643,0,0,0,4.03-.061l.212-.071.194-2.2a12.187,12.187,0,0,1-9,0l.207,2.34Z" transform="translate(-153.62 -219.435)" fill="#3760f6"/>
      <path id="Path_62" data-name="Path 62" d="M263.177,326.472l.825-8.23a7.475,7.475,0,0,1-4.394.023,6.7,6.7,0,0,0-3.837,0l-.2.06.82,8.147Zm-5.36-2.137-.834.083-.333-3.353.834-.083Zm-.485-5.075.079.889-.835.073-.079-.889Z" transform="translate(-158.793 -271.004)" fill="#3760f6"/>
    </g>
  </g>
</svg>
