<svg id="dashboard_2_" data-name="dashboard (2)" xmlns="http://www.w3.org/2000/svg" width="21.323"
    height="21.323" viewBox="0 0 21.323 21.323">
    <path id="Path_10" data-name="Path 10"
        d="M8.218,0H1.555A1.556,1.556,0,0,0,0,1.555v4A1.557,1.557,0,0,0,1.555,7.108H8.218A1.557,1.557,0,0,0,9.773,5.553v-4A1.557,1.557,0,0,0,8.218,0Zm0,0"
        fill="#0dc8e9" />
    <path id="Path_11" data-name="Path 11"
        d="M8.218,213.332H1.555A1.557,1.557,0,0,0,0,214.887v9.329a1.556,1.556,0,0,0,1.555,1.555H8.218a1.557,1.557,0,0,0,1.555-1.555v-9.329A1.557,1.557,0,0,0,8.218,213.332Zm0,0"
        transform="translate(0 -204.447)" fill="#0dc8e9" />
    <path id="Path_12" data-name="Path 12"
        d="M285.551,341.332h-6.663a1.557,1.557,0,0,0-1.555,1.555v4a1.556,1.556,0,0,0,1.555,1.555h6.663a1.556,1.556,0,0,0,1.555-1.555v-4A1.557,1.557,0,0,0,285.551,341.332Zm0,0"
        transform="translate(-265.782 -327.117)" fill="#0dc8e9" />
    <path id="Path_13" data-name="Path 13"
        d="M285.551,0h-6.663a1.557,1.557,0,0,0-1.555,1.555v9.329a1.557,1.557,0,0,0,1.555,1.555h6.663a1.557,1.557,0,0,0,1.555-1.555V1.555A1.556,1.556,0,0,0,285.551,0Zm0,0"
        transform="translate(-265.782)" fill="#0dc8e9" />
</svg>
