<svg xmlns="http://www.w3.org/2000/svg" width="57" height="57" viewBox="0 0 57 57">
  <g id="Group_157" data-name="Group 157" transform="translate(-1118 -645)">
    <rect id="Rectangle_27" data-name="Rectangle 27" width="57" height="57" rx="16" transform="translate(1118 645)" fill="#fff"/>
    <path id="Path_66" data-name="Path 66" d="M23.938,10.8a30.392,30.392,0,0,0,1.4-8.126,3.093,3.093,0,0,0-.808-2.11,1.8,1.8,0,0,0-2.22-.326c-1.29.665-2.212,2.623-2.953,4.2l-.126.267a2.5,2.5,0,0,0-1.368-1.732,2.06,2.06,0,0,0-1.6-1.592,1.336,1.336,0,0,0-.033-.133A1.49,1.49,0,0,0,14.99.193a1.45,1.45,0,0,0-.918.188,1.57,1.57,0,0,0-.763-.2,1.591,1.591,0,0,0-1.546,1.225A1.946,1.946,0,0,0,10.332,3.26,2.162,2.162,0,0,0,8.86,6.135a1.7,1.7,0,0,0-.237,1.745A2.3,2.3,0,0,0,6.9,7.05a.432.432,0,0,0,.013.864h.042a1.5,1.5,0,0,1,1.055.579,2.939,2.939,0,0,0-1.9,1.245,2.2,2.2,0,0,0-.106,1.586.743.743,0,0,0-.106.431L6.639,22.2A2.459,2.459,0,0,0,9.1,24.533H21.218a2.458,2.458,0,0,0,2.457-2.328l.754-10.816a.57.57,0,0,0-.155-.421A.558.558,0,0,0,23.938,10.8ZM19.579,5.94c.171-.319.358-.715.555-1.134.649-1.378,1.539-3.266,2.568-3.8a.933.933,0,0,1,1.206.162,2.244,2.244,0,0,1,.564,1.485,29.574,29.574,0,0,1-1.387,7.986c-.028.09-.09.272-.179.523l-.736.327a.4.4,0,0,0-.047.025,1.349,1.349,0,0,1-1.378,0l-.308-.185a2.234,2.234,0,0,0-1.148-.318,2.438,2.438,0,0,0-1.177.318l-.307.185a1.349,1.349,0,0,1-.551.171c.009-.032.02-.064.03-.1.12-.408.249-.81.383-1.208.049-.146.1-.291.152-.435q.169-.475.352-.941c.052-.133.1-.267.156-.4A28.346,28.346,0,0,1,19.579,5.94ZM14.59,11.049c-.048.008-.095.017-.141.028a2.22,2.22,0,0,0-.417.133l-.083-.379c.124.01.248.021.364.021a3.339,3.339,0,0,0,2.056-.72,5.29,5.29,0,0,1,.6-.373c-.04.113-.079.225-.117.338-.028.081-.057.161-.084.243q-.19.576-.361,1.162l-.287-.172a2.234,2.234,0,0,0-1.148-.318,2.192,2.192,0,0,0-.31.025C14.638,11.04,14.614,11.046,14.59,11.049ZM13.9,5.212a.179.179,0,0,1-.076-.349l2.423-.526a.18.18,0,0,1,.175.14.176.176,0,0,1-.025.135.178.178,0,0,1-.111.078Zm.17,1.751c.051-.065.1-.128.147-.191a1.065,1.065,0,0,0,.089-.139.925.925,0,0,0,.082-.644l1.8-.394a.987.987,0,0,0,.046.161.968.968,0,0,0,.426.477c.066.036.134.073.205.11l.175.095.085.046c.051.029.1.061.151.092s.085.054.127.082.094.07.139.107.079.069.117.105.082.081.119.126a1.485,1.485,0,0,1,.183.261c-.183.4-.355.817-.522,1.232-.026.064-.054.127-.079.191a4.407,4.407,0,0,0-1.5.747,2.542,2.542,0,0,1-2.115.513l-.262-1.2A1.971,1.971,0,0,1,14.074,6.964ZM11.517,17.7a.432.432,0,1,1,0,.864H8.495a.432.432,0,1,1,0-.864ZM8.495,19.429h3.886a.432.432,0,1,1,0,.864H8.495a.432.432,0,1,1,0-.864ZM9.655,6.555l.283-.233-.184-.317a1.3,1.3,0,0,1,1.072-1.95l.524-.022-.122-.51a1.064,1.064,0,0,1-.031-.25,1.075,1.075,0,0,1,.989-1.067l.4-.03v-.43a.725.725,0,0,1,.724-.7.713.713,0,0,1,.482.189l.3.273.29-.287a.6.6,0,0,1,.5-.171.623.623,0,0,1,.508.44.563.563,0,0,1,.02.229l-.051.482h.486a1.189,1.189,0,0,1,1.182,1.1l.019.284.268.094a1.646,1.646,0,0,1,1.1,1.59,1.559,1.559,0,0,1-.283.857,4.569,4.569,0,0,0-.862-.548c-.068-.036-.133-.07-.2-.107a.094.094,0,0,1-.049-.074.246.246,0,0,1,.06-.192.927.927,0,0,0,.2-.8l-.052-.238a.935.935,0,0,0-1.1-.7l-.115.025h0l-1.267.277-1.237.27a.921.921,0,0,0-.7,1.1l.026.117h0v0l.025.117a.919.919,0,0,0,.534.646.262.262,0,0,1,.143.139c.011.032,0,.048-.02.09-.043.057-.089.116-.136.176s-.1.125-.148.191l-.046.062c-.037.05-.074.1-.111.155l-.055.083c-.033.051-.066.1-.1.159l-.052.092c-.033.061-.063.125-.092.19-.012.027-.025.053-.036.081a2.489,2.489,0,0,0-.1.3c0,.016-.006.032-.01.048a2.384,2.384,0,0,0-.049.277c0,.038-.005.078-.008.117s-.01.1-.01.153l-.037-.046c-.029-.037-.057-.071-.086-.106-.064-.079-.128-.154-.193-.225-.032-.035-.063-.069-.1-.1-.068-.069-.136-.133-.2-.192-.025-.022-.051-.047-.076-.067a2.611,2.611,0,0,0-.276-.2c-.028-.017-.057-.03-.085-.046a2.1,2.1,0,0,0-.2-.1c-.037-.016-.075-.03-.112-.043a1.743,1.743,0,0,0-.186-.054c-.038-.009-.075-.019-.113-.025a1.681,1.681,0,0,0-.237-.022c-.018,0-.036-.005-.054-.005a2.243,2.243,0,0,0-1.219.411.822.822,0,0,1-.06-.311A.837.837,0,0,1,9.655,6.555ZM6.88,10.14a2.154,2.154,0,0,1,1.4-.827,2.33,2.33,0,0,0,.966-.554c.12-.115.234-.215.345-.3a3.5,3.5,0,0,1,.284-.21l.01-.006a1.727,1.727,0,0,1,.5-.236L10.4,8a.977.977,0,0,1,.224-.029c.543,0,1.126.542,1.732,1.611a3.277,3.277,0,0,1,.285,2.108c-.032,0-.064-.007-.1-.013a1.344,1.344,0,0,1-.44-.16l-.308-.185a2.234,2.234,0,0,0-1.148-.318,2.438,2.438,0,0,0-1.177.318l-.15.09a1.654,1.654,0,0,1-1.694,0l-.582-.349a.746.746,0,0,0-.244-.092A1.239,1.239,0,0,1,6.88,10.14ZM13.245,22.02H8.495a.432.432,0,1,1,0-.864h4.75a.432.432,0,1,1,0,.864Zm2.591,0h-.864a.432.432,0,0,1,0-.864h.864a.432.432,0,1,1,0,.864Z" transform="translate(1131.098 661)" fill="#ff7437"/>
  </g>
</svg>
