<svg xmlns="http://www.w3.org/2000/svg" width="57" height="57" viewBox="0 0 57 57">
  <g id="Group_153" data-name="Group 153" transform="translate(-1118 -608)">
    <rect id="Rectangle_27" data-name="Rectangle 27" width="57" height="57" rx="16" transform="translate(1118 608)" fill="#fff"/>
    <g id="gym_1_" data-name="gym (1)" transform="translate(1135 540.057)">
      <g id="Group_73" data-name="Group 73" transform="translate(0 88.943)">
        <path id="Path_52" data-name="Path 52" d="M21.488,90.821h-.453a1.927,1.927,0,0,0-.528.074,1.937,1.937,0,0,0-1.9-1.57h-.453A1.937,1.937,0,0,0,16.22,91.26v3.122H7.2v-3.5a1.937,1.937,0,0,0-1.934-1.934H4.815a1.937,1.937,0,0,0-1.9,1.57,1.927,1.927,0,0,0-.528-.074H1.934A1.937,1.937,0,0,0,0,92.373v8.042a1.937,1.937,0,0,0,1.934,1.934h.453a1.928,1.928,0,0,0,.528-.074,1.937,1.937,0,0,0,1.9,1.57h.453A1.937,1.937,0,0,0,7.2,101.911V99.1H16.22v3.191a1.937,1.937,0,0,0,1.934,1.934h.453a1.937,1.937,0,0,0,1.9-1.57,1.928,1.928,0,0,0,.528.074h.453a1.937,1.937,0,0,0,1.934-1.934V92.755A1.936,1.936,0,0,0,21.488,90.821ZM2.881,100.415a.494.494,0,0,1-.493.493H1.934a.494.494,0,0,1-.493-.493v.836c0-.272.221-.2.493-.2l.453.2c.272,0,.493-.272.493,0Zm2.881,1.5a.494.494,0,0,1-.493.493H4.815a.494.494,0,0,1-.493-.493v1.65a.494.494,0,0,1,.493-.493h.453a.494.494,0,0,1,.493.493Zm10.458-4.25H7.2v.7H16.22v-.7Z" transform="translate(0 -88.943)" fill="#0dc3e7"/>
      </g>
    </g>
  </g>
</svg>
