<svg xmlns="http://www.w3.org/2000/svg" width="178.81" height="98.44" viewBox="0 0 178.81 98.44">
    <g id="Group_89" data-name="Group 89" transform="translate(-828 -230.56)">
        <path id="Path_259" data-name="Path 259"
            d="M1245.328,762.064s15.713,18.465,30.982-8.041,28.522,2.017,45.521,0,11.812-35.437,40.047-28.522"
            transform="matrix(0.995, 0.105, -0.105, 0.995, -299.175, -605.081)" fill="none"
            stroke="#0dc3e7" stroke-linecap="round" stroke-width="2" />
        <g id="Group_88" data-name="Group 88">
            <rect id="Rectangle_38" data-name="Rectangle 38" width="33" height="21" rx="10.5"
                transform="translate(832 292)" fill="#0dc8e9" opacity="0.4" />
        </g>
        <rect id="Rectangle_39" data-name="Rectangle 39" width="39" height="39" rx="12"
            transform="translate(829 268)" fill="#0dc8e9" />
        <g id="cost" transform="translate(838 277)">
            <path id="Path_72" data-name="Path 72"
                d="M7.758,166.249a14.072,14.072,0,0,0,4.194-.51,2.035,2.035,0,0,1,.59-1.865,2.067,2.067,0,0,1,0-2.969,2.067,2.067,0,0,1,0-2.969,2.064,2.064,0,0,1,.227-3.156,8.422,8.422,0,0,0-1.126-.868,1.163,1.163,0,0,0,.271-.726A1.187,1.187,0,0,0,10.727,152H4.79A1.187,1.187,0,0,0,3.6,153.187a1.164,1.164,0,0,0,.27.725A8.5,8.5,0,0,0,0,160.906c0,4.79,4.444,5.343,7.758,5.343Zm-.006-5.763a1.777,1.777,0,0,1-.587-3.455v-.875a.594.594,0,1,1,1.187,0v.879a1.778,1.778,0,0,1,1.181,1.67.594.594,0,0,1-1.187,0,.594.594,0,1,0-.594.594,1.777,1.777,0,0,1,.6,3.451v.531a.594.594,0,1,1-1.187,0v-.527a1.778,1.778,0,0,1-1.194-1.674.594.594,0,0,1,1.187,0,.594.594,0,1,0,.594-.594Zm0,0"
                transform="translate(0 -145.984)" fill="#fff" />
            <path id="Path_73" data-name="Path 73"
                d="M337.274,467h-5.383a.891.891,0,1,0,0,1.781h5.383a.891.891,0,0,0,0-1.781Zm0,0"
                transform="translate(-317.898 -448.516)" fill="#fff" />
            <path id="Path_74" data-name="Path 74"
                d="M337.274,392h-5.383a.891.891,0,0,0,0,1.781h5.383a.891.891,0,0,0,0-1.781Zm0,0"
                transform="translate(-317.898 -376.484)" fill="#fff" />
            <path id="Path_75" data-name="Path 75"
                d="M337.274,317h-5.383a.891.891,0,0,0,0,1.781h5.383a.891.891,0,0,0,0-1.781Zm0,0"
                transform="translate(-317.898 -304.453)" fill="#fff" />
            <path id="Path_76" data-name="Path 76"
                d="M337.274,242h-5.383a.891.891,0,1,0,0,1.781h5.383a.891.891,0,0,0,0-1.781Zm0,0"
                transform="translate(-317.898 -232.421)" fill="#fff" />
            <path id="Path_77" data-name="Path 77"
                d="M96.827,1.187a1.776,1.776,0,0,0-3.352,0H91.593a.593.593,0,0,0-.563.782l.927,2.86h6.4l.927-2.86a.593.593,0,0,0-.563-.782Zm0,0"
                transform="translate(-87.397)" fill="#fff" />
        </g>
    </g>
</svg>
