<svg xmlns="http://www.w3.org/2000/svg" width="20" height="23.486" viewBox="0 0 20 23.486">
  <g id="surface1" transform="translate(0 0.001)">
    <path id="Path_27" data-name="Path 27" d="M124.916,158.457a4.475,4.475,0,1,0,4.475,4.475A4.48,4.48,0,0,0,124.916,158.457Zm2.657,3.632-3.206,3.206a.689.689,0,0,1-.975,0l-1.225-1.225a.689.689,0,0,1,.974-.974l.738.738,2.719-2.719a.689.689,0,0,1,.974.974Zm0,0" transform="translate(-114.916 -151.189)" fill="#6d87e5"/>
    <path id="Path_28" data-name="Path 28" d="M19.977,6.372V6.353c-.01-.226-.017-.464-.021-.73a2.489,2.489,0,0,0-2.344-2.439A9.659,9.659,0,0,1,11.037.414L11.022.4A1.5,1.5,0,0,0,8.979.4L8.964.414A9.66,9.66,0,0,1,2.39,3.185,2.489,2.489,0,0,0,.046,5.624c0,.264-.011.5-.021.73V6.4c-.053,2.754-.118,6.181,1.029,9.291a11.827,11.827,0,0,0,2.837,4.42,14.843,14.843,0,0,0,5.553,3.284,1.72,1.72,0,0,0,.228.062,1.681,1.681,0,0,0,.661,0,1.725,1.725,0,0,0,.228-.062A14.853,14.853,0,0,0,16.106,20.1a11.844,11.844,0,0,0,2.837-4.421C20.094,12.564,20.029,9.13,19.977,6.372ZM10,17.6a5.853,5.853,0,1,1,5.853-5.853A5.86,5.86,0,0,1,10,17.6Zm0,0" transform="translate(0 0)" fill="#6d87e5"/>
  </g>
</svg>
