<svg id="gear" xmlns="http://www.w3.org/2000/svg" width="20" height="20" viewBox="0 0 20 20">
    <g id="Group_18" data-name="Group 18">
        <path id="Path_29" data-name="Path 29"
            d="M19.555,8.3l-2.34-.574a7.547,7.547,0,0,0-.492-1.2l1.2-1.992a.583.583,0,0,0-.082-.715L16.172,2.164a.583.583,0,0,0-.715-.082l-1.992,1.2a7.547,7.547,0,0,0-1.2-.492L11.707.445A.6.6,0,0,0,11.133,0H8.789a.6.6,0,0,0-.574.445l-.562,2.34a7.547,7.547,0,0,0-1.2.492l-1.992-1.2a.583.583,0,0,0-.715.082L2.086,3.828A.583.583,0,0,0,2,4.543L3.2,6.535a7.547,7.547,0,0,0-.492,1.2L.445,8.3A.578.578,0,0,0,0,8.867v2.344a.578.578,0,0,0,.445.563l2.262.574a7.547,7.547,0,0,0,.492,1.2L2,15.535a.583.583,0,0,0,.082.715L3.75,17.914A.583.583,0,0,0,4.465,18l1.992-1.2a7.547,7.547,0,0,0,1.2.492l.562,2.262A.6.6,0,0,0,8.789,20h2.344a.6.6,0,0,0,.574-.445l.563-2.262a7.547,7.547,0,0,0,1.2-.492L15.457,18a.583.583,0,0,0,.715-.082l1.664-1.664a.583.583,0,0,0,.082-.715l-1.2-1.992a7.547,7.547,0,0,0,.492-1.2l2.34-.574A.578.578,0,0,0,20,11.211V8.867A.578.578,0,0,0,19.555,8.3ZM9.961,12.969a2.93,2.93,0,1,1,2.93-2.93A2.931,2.931,0,0,1,9.961,12.969Z"
            fill="#6d87e5" />
    </g>
</svg>
