<svg xmlns="http://www.w3.org/2000/svg" width="57" height="57" viewBox="0 0 57 57">
  <g id="Group_154" data-name="Group 154" transform="translate(-1118 -689)">
    <rect id="Rectangle_27" data-name="Rectangle 27" width="57" height="57" rx="16" transform="translate(1118 689)" fill="#fff"/>
    <g id="shopping-cart" transform="translate(1135 695.33)">
      <g id="Group_75" data-name="Group 75" transform="translate(15.258 27.799)">
        <g id="Group_74" data-name="Group 74">
          <path id="Path_53" data-name="Path 53" d="M295.131,338.862a2.779,2.779,0,1,0,2.779,2.779A2.812,2.812,0,0,0,295.131,338.862Z" transform="translate(-292.352 -338.862)" fill="#feaa2d"/>
        </g>
      </g>
      <g id="Group_77" data-name="Group 77" transform="translate(0 10.67)">
        <g id="Group_76" data-name="Group 76" transform="translate(0 0)">
          <path id="Path_54" data-name="Path 54" d="M22.928,14.545c-.053,0-.134-.027-.214-.027H5.879l-.267-1.79A2.393,2.393,0,0,0,3.233,10.67H1.069a1.069,1.069,0,0,0,0,2.138H3.233a.284.284,0,0,1,.267.241L5.157,24.325A2.93,2.93,0,0,0,8.043,26.81H19.16a2.97,2.97,0,0,0,2.886-2.352l1.737-8.685A1.056,1.056,0,0,0,22.928,14.545Z" transform="translate(0 -10.67)" fill="#feaa2d"/>
        </g>
      </g>
      <g id="Group_79" data-name="Group 79" transform="translate(5.797 27.799)">
        <g id="Group_78" data-name="Group 78">
          <path id="Path_55" data-name="Path 55" d="M116.5,341.508a2.763,2.763,0,0,0-2.752-2.646,2.8,2.8,0,0,0-2.672,2.886,2.739,2.739,0,0,0,2.726,2.646h.053A2.773,2.773,0,0,0,116.5,341.508Z" transform="translate(-111.07 -338.862)" fill="#feaa2d"/>
        </g>
      </g>
    </g>
  </g>
</svg>
