<svg xmlns="http://www.w3.org/2000/svg" width="24" height="21.231" viewBox="0 0 24 21.231">
  <g id="buy_1_" data-name="buy (1)" transform="translate(0 -29.539)">
    <g id="Group_12" data-name="Group 12" transform="translate(0 35.77)">
      <g id="Group_11" data-name="Group 11" transform="translate(0 0)">
        <path id="Path_24" data-name="Path 24" d="M20.769,172.615a2.076,2.076,0,0,1-1.711-.9l-1.016-1.478a6.927,6.927,0,0,1-12.93-2.7h.658a.692.692,0,0,0,.57-1.085l-1.009-1.468L3.8,162.761a.692.692,0,0,0-1.141,0L.122,166.453a.692.692,0,0,0,.571,1.085h.714a10.616,10.616,0,0,0,18.1,6.814,10.687,10.687,0,0,0,1.41-1.743C20.868,172.613,20.819,172.615,20.769,172.615Z" transform="translate(0 -162.461)" fill="#6d87e5"/>
      </g>
    </g>
    <g id="Group_14" data-name="Group 14" transform="translate(9.725 35.77)">
      <g id="Group_13" data-name="Group 13" transform="translate(0 0)">
        <path id="Path_25" data-name="Path 25" d="M210.275,166.155H209.22a.363.363,0,0,1-.363-.363v-.527a.363.363,0,0,1,.363-.363h1.055a.363.363,0,0,1,.363.363.692.692,0,0,0,1.385,0,1.749,1.749,0,0,0-1.582-1.739v-.371a.692.692,0,0,0-1.385,0v.371a1.75,1.75,0,0,0-1.582,1.739v.527a1.749,1.749,0,0,0,1.747,1.747h1.055a.363.363,0,0,1,.363.363v.527a.363.363,0,0,1-.363.363H209.22a.363.363,0,0,1-.363-.363.692.692,0,1,0-1.385,0,1.749,1.749,0,0,0,1.582,1.739v.371a.692.692,0,0,0,1.385,0v-.371a1.75,1.75,0,0,0,1.582-1.739V167.9A1.749,1.749,0,0,0,210.275,166.155Z" transform="translate(-207.473 -162.463)" fill="#6d87e5"/>
      </g>
    </g>
    <g id="Group_16" data-name="Group 16" transform="translate(3.084 29.539)">
      <g id="Group_15" data-name="Group 15" transform="translate(0 0)">
        <path id="Path_26" data-name="Path 26" d="M86.621,39.832a.692.692,0,0,0-.613-.37h-.714a10.616,10.616,0,0,0-18.1-6.814,10.687,10.687,0,0,0-1.41,1.743c.049,0,.1-.006.147-.006a2.076,2.076,0,0,1,1.711.9l1.016,1.478a6.927,6.927,0,0,1,12.93,2.7h-.658a.692.692,0,0,0-.57,1.085l1.009,1.468L82.9,44.239a.692.692,0,0,0,1.141,0l.917-1.333,1.622-2.359A.692.692,0,0,0,86.621,39.832Z" transform="translate(-65.784 -29.539)" fill="#6d87e5"/>
      </g>
    </g>
  </g>
</svg>
